/* XPM */
static char *result[] = {
/* columns rows colors chars-per-pixel */
"32 32 216 2 ",
"   c black",
".  c #020000",
"X  c #020101",
"o  c #020201",
"O  c #030201",
"+  c #030202",
"@  c #040201",
"#  c #040202",
"$  c #0B0605",
"%  c #0C0605",
"&  c #110907",
"*  c #120C09",
"=  c #130D09",
"-  c #140D09",
";  c #160C09",
":  c #160F0A",
">  c #160F0B",
",  c #1E0F0B",
"<  c #1E0F0C",
"1  c #1F0F0C",
"2  c #18100B",
"3  c #19110C",
"4  c #1A120C",
"5  c #1B120C",
"6  c #1B120D",
"7  c #1B130D",
"8  c #1E100C",
"9  c #1F100C",
"0  c #20100C",
"q  c #21110D",
"w  c #22110D",
"e  c #22120D",
"r  c #22120E",
"t  c #23120E",
"y  c #24150F",
"u  c #241911",
"i  c #261912",
"p  c #2A1C14",
"a  c #2B1D15",
"s  c #2C1E15",
"d  c #2D1E15",
"f  c #2E1F16",
"g  c #321E16",
"h  c #322117",
"j  c #342017",
"k  c #342117",
"l  c #362117",
"z  c #322218",
"x  c #332219",
"c  c #342318",
"v  c #342319",
"b  c #372519",
"n  c #35241A",
"m  c #36241A",
"M  c #37251A",
"N  c #36241B",
"B  c #37251B",
"V  c #3A251A",
"C  c #38261B",
"Z  c #39261B",
"A  c #3A271B",
"S  c #3D271B",
"D  c #38251C",
"F  c #39261C",
"G  c #39271C",
"H  c #3A271C",
"J  c #3D271C",
"K  c #3E271C",
"L  c #3A281C",
"P  c #3B281C",
"I  c #3C281C",
"U  c #3C291C",
"Y  c #3D291C",
"T  c #3C291D",
"R  c #3D291D",
"E  c #3E281C",
"W  c #3E2A1C",
"Q  c #3F2B1C",
"!  c #3E2A1D",
"~  c #3E2B1D",
"^  c #3F2B1D",
"/  c #3F2C1E",
"(  c #402B1D",
")  c #402B1E",
"_  c #432E1D",
"`  c #412C1E",
"'  c #412C1F",
"]  c #422C1F",
"[  c #422D1F",
"{  c #432D1F",
"}  c #442E1E",
"|  c #4C341F",
" . c #442E20",
".. c #452E20",
"X. c #452F20",
"o. c #452E21",
"O. c #462F21",
"+. c #463021",
"@. c #473021",
"#. c #473022",
"$. c #473122",
"%. c #483120",
"&. c #483021",
"*. c #483022",
"=. c #483122",
"-. c #493122",
";. c #4B3122",
":. c #493222",
">. c #4A3222",
",. c #4A3223",
"<. c #4B3223",
"1. c #4B3323",
"2. c #4C3223",
"3. c #4C3323",
"4. c #4D3323",
"5. c #4C3423",
"6. c #4E3423",
"7. c #4B3224",
"8. c #4C3324",
"9. c #4D3424",
"0. c #4C3524",
"q. c #4E3424",
"w. c #4E3524",
"e. c #4F3524",
"r. c #4E3525",
"t. c #4F3525",
"y. c #4F3625",
"u. c #4E3626",
"i. c #4E3627",
"p. c #4F3727",
"a. c #503525",
"s. c #503625",
"d. c #513625",
"f. c #513725",
"g. c #503726",
"h. c #513726",
"j. c #523726",
"k. c #523821",
"l. c #523824",
"z. c #513827",
"x. c #523826",
"c. c #533826",
"v. c #533927",
"b. c #523A27",
"n. c #543827",
"m. c #593D26",
"M. c #513928",
"N. c #523A28",
"B. c #533A28",
"V. c #543B28",
"C. c #553B28",
"Z. c #553B29",
"A. c #553C29",
"S. c #583F2A",
"D. c #5A3E2A",
"F. c #5C3F2B",
"G. c #5D4029",
"H. c #5F432B",
"J. c #5C402C",
"K. c #5D432C",
"L. c #5F422D",
"P. c #5E452E",
"I. c #644525",
"U. c #654525",
"Y. c #6E4B27",
"T. c #67472A",
"R. c #61432E",
"E. c #61442E",
"W. c #62442E",
"Q. c #64452F",
"!. c #64462F",
"~. c #6D4B29",
"^. c #6E4C28",
"/. c #6E4D28",
"(. c #6E4E2F",
"). c #7D562B",
"_. c #7A542D",
"`. c #6A4B33",
"'. c #6B4B33",
"]. c #6B4C33",
"[. c #6C4C33",
"{. c #6C4C34",
"}. c #6C4D34",
"|. c #6D4D34",
" X c #6E4E35",
".X c #6F4F35",
"XX c #6B5134",
"oX c #6F5334",
"OX c #715036",
"+X c #7D6440",
"@X c #815A2D",
"#X c #845B2D",
"$X c #976A35",
"%X c #936A39",
"&X c #A27236",
"*X c #A57336",
"=X c #9A7846",
"-X c #947A4C",
";X c #B8813B",
":X c #B8813C",
">X c #BE863E",
",X c #AC8145",
"<X c #A38955",
"1X c #B19055",
"2X c #C68B40",
"3X c #CC9042",
"4X c #CC964A",
"5X c #DEA854",
"6X c #E4A34B",
"7X c #E5A74F",
"8X c #EEB054",
"9X c #D9AF61",
"0X c #CEB16A",
"qX c #E4BC6A",
"wX c #F2BE63",
"eX c None",
/* pixels */
"}.}.}.|.|.}.}.}.}.}.}.}.}.}.}.|.|.}.}.}.}.}.}.|.OX.XF.V t < q q ",
"B.B.B.B.B.B.B.B.B.B.B.B.B.B.B.B.B.B.B.B.B.B.B.Z.J.L.d.l r 1 q q ",
"P P L H H L P P P P P P P P L H H L P P P H G T $.g.&.g r 9 q q ",
"I A m z v Z P I P P P P I P M v v M P I I Z v m +.C.q.j r 1 q q ",
">.O.R n Z { -.:.-.-.-.-.>.&.) M M ) &.>.-.{ Z Z u.!.D.V t < q q ",
"h.9. .I ) >.s.f.s.s.s.s.h.t...Z Z ..t.j.d.-.I L B.[.E.S t < q q ",
"h.y.,.O.=.q.f.h.f.f.f.f.j.y...C C ..y.c.h.-.I L B.}.W.K t < q q ",
"s.s.t.e.t.s.s.s.s.s.s.s.f.e.X.H H X.e.j.s.-.I L B.].R.S t < q q ",
"s.s.d.f.d.s.s.s.s.s.s.s.d.t.-.[ [ -.t.h.s.-.I L B.].R.S t < q q ",
"s.s.s.s.s.s.s.s.s.s.s.s.s.s.w.3.3.w.s.f.s.-.I L B.].R.S t < q q ",
"s.s.s.s.s.s.s.s.s.s.s.s.s.s.s.d.s.e.q.e.r.#.P L B.].R.S t < q q ",
"s.s.s.s.s.s.s.s.s.s.s.s.s.s.s.d.a.4.;.<.7.o.H H B.].R.S t < q q ",
"s.s.s.s.s.s.s.s.s.s.s.s.s.s.s.s.v.S.K.H.G.l.( P N.].R.S t < q q ",
"s.s.s.s.s.s.s.s.s.s.s.s.s.s.q.e.P.+X-X=X%X_.k.U z.].R.S t < q q ",
"s.s.s.s.s.s.s.s.s.s.s.s.s.s.2.q.XX<X0X9X4X*XU.~ p.'.R.S t < q q ",
"s.s.s.s.s.s.s.s.s.s.s.s.s.s.2.q.oX1XqXwX7X;XY.^ i.`.R.S t < q q ",
"s.s.s.s.s.s.s.s.s.s.s.s.s.s.8.q.(.,X5X8X6X:X^.^ i.`.R.S t < q q ",
"s.s.s.s.s.s.s.s.s.s.s.s.s.s.9.r.T.$X>X3X2X&XI.! p.'.R.S t < q q ",
"s.s.d.f.d.s.s.s.s.s.s.s.s.s.t.t.m.~.).#X@X/.| U M.].R.S t < q q ",
"s.s.s.y.y.s.s.s.s.s.s.s.s.s.s.s.6.%.} _ _ Q b H B.].R.S t < q q ",
"s.e.1.&.-.9.s.s.s.s.s.s.s.s.d.s.1.' F B D N x G V.].R.S t < q q ",
"f.9. .R ` >.s.d.s.s.s.s.s.s.s.s.w.<.*.*.#.] Z H B.].R.S t < q q ",
"h.5.' M I =.s.f.s.s.s.s.s.s.s.s.s.s.s.f.s.-.I L B.].R.S t < q q ",
"h.3.` M P =.s.f.s.s.s.s.s.s.s.f.f.f.f.j.f.-.I L B.].R.S t < q q ",
"f.5.' M I =.s.f.s.s.s.s.s.s.y.e.e.y.s.f.s.-.I L B.].R.S t < q q ",
"n.t.{ Z ! ,.x.c.x.x.x.x.c.j.9.=.=.9.j.n.c.<.R T A. XQ.E t , q q ",
"j.9.] C R -.d.j.d.d.d.f.j.s.@.! ! @.s.x.h.-.I P V.{.W.J t < q q ",
"! A h p f M Y W Y Y Y Y ! I c a a c I ! Y M d s / b.0.k t 0 q q ",
"5 3 : * - 2 5 5 5 5 5 5 5 4 > * * > 4 6 5 2 - = 7 u i y r w e e ",
"O o X X X o O O O O O O O o X X X X o O O o X X X + $ ; < 9 8 < ",
"                                                eX  . % & & & & ",
"eXeXeXeXeXeXeXeXeXeXeXeXeXeXeXeXeXeXeXeXeXeXeXeXeXeXeX@ # # # # "
};
