/* XPM */
static char *result[] = {
/* columns rows colors chars-per-pixel */
"32 32 169 2 ",
"   c #8E7C5B",
".  c #8F7D5B",
"X  c #9E7858",
"o  c #9F7858",
"O  c #AC6A4E",
"+  c #AE6A4E",
"@  c #AF6B4F",
"#  c #B06A4E",
"$  c #B56B4F",
"%  c #B36C4F",
"&  c #B46C4F",
"*  c #B56C4F",
"=  c #B4704F",
"-  c #B7714F",
";  c #B46D50",
":  c #B96C5D",
">  c #B37455",
",  c #B67556",
"<  c #B57658",
"1  c #B7795A",
"2  c #B27E5A",
"3  c #B87858",
"4  c #B87A5A",
"5  c #BA7A5A",
"6  c #BB7B5B",
"7  c #BB576F",
"8  c #BC576F",
"9  c #BD5670",
"0  c #BE5670",
"q  c #BD5572",
"w  c #B95974",
"e  c #8A7277",
"r  c #BB6363",
"t  c #BE6463",
"y  c #BE6563",
"u  c #A77768",
"i  c #B77E65",
"p  c #AE6270",
"a  c #AE6370",
"s  c #C0566C",
"d  c #C14F76",
"f  c #C24F76",
"g  c #C15270",
"h  c #C05670",
"j  c #C15075",
"k  c #C15076",
"l  c #C25076",
"z  c #CA5771",
"x  c #CB5771",
"c  c #CC5771",
"v  c #CC5871",
"b  c #CD5971",
"n  c #D15077",
"m  c #D05177",
"M  c #D15177",
"N  c #D15178",
"B  c #D25078",
"V  c #D25178",
"C  c #CA7F65",
"Z  c #7D8F66",
"A  c #77856A",
"S  c #769469",
"D  c #788876",
"F  c #798976",
"G  c #738A7A",
"H  c #718D7F",
"J  c #708E7F",
"K  c #679573",
"L  c #689C72",
"P  c #59A17A",
"I  c #5AA07A",
"U  c #BF805E",
"Y  c #818D64",
"T  c #828E65",
"R  c #839168",
"E  c #849268",
"W  c #BF8465",
"Q  c #BB8F7B",
"!  c #C78056",
"~  c #CB8256",
"^  c #CC8256",
"/  c #C78159",
"(  c #D08457",
")  c #D08458",
"_  c #D08558",
"`  c #D68A5B",
"'  c #C58663",
"]  c #C68662",
"[  c #C88861",
"{  c #CB8A61",
"}  c #CC8B62",
"|  c #C88965",
" . c #C88966",
".. c #C98A66",
"X. c #CE8369",
"o. c #CF8369",
"O. c #CF8469",
"+. c #C08B69",
"@. c #D08E64",
"#. c #D08369",
"$. c #D3836A",
"%. c #D08669",
"&. c #D0846A",
"*. c #D1846A",
"=. c #D0866A",
"-. c #D1866A",
";. c #D3876A",
":. c #D2866B",
">. c #D49264",
",. c #D69569",
"<. c #D9976A",
"1. c #DF9A6A",
"2. c #DF9B6A",
"3. c #C1927C",
"4. c #C1937C",
"5. c #C5977D",
"6. c #C5987E",
"7. c #CB987A",
"8. c #DE9F70",
"9. c #E09B69",
"0. c #E19E6E",
"q. c #E19E6F",
"w. c #E7A774",
"e. c #E8A674",
"r. c #E9AA76",
"t. c #7A7F99",
"y. c #837E90",
"u. c #6A87AB",
"i. c #758AA9",
"p. c #698EB8",
"a. c #AC8B81",
"s. c #B19186",
"d. c #A69993",
"f. c #A59D9A",
"g. c #A6A5A4",
"h. c #C59881",
"j. c #C29885",
"k. c #CEA287",
"l. c #CBA18B",
"z. c #CFA288",
"x. c #CDA794",
"c. c #CEA994",
"v. c #D0AD99",
"b. c #CEB09F",
"n. c #CFB5A5",
"m. c #CABAAD",
"M. c #CFBDAF",
"N. c #CFBEAF",
"B. c #D2B8A7",
"V. c #D4B8A6",
"C. c #CCC3B8",
"Z. c #CEC5BB",
"A. c #D3C0B2",
"S. c #D1C5B9",
"D. c #D7C8BA",
"F. c #DACEC1",
"G. c #DDD3C6",
"H. c #DED3C7",
"J. c #DED4C7",
"K. c #E9D8C7",
"L. c #EADBCB",
"P. c #EEE0D0",
"I. c #ECE1D2",
"U. c #F0E5D5",
"Y. c #F1E6D6",
"T. c #F1E7D7",
"R. c #F2E7D7",
"E. c #F1E8D8",
"W. c None",
/* pixels */
"W.W.W.W.W.W.W.W.W.W.W.W.W.W.W.W.W.W.W.W.W.W.W.W.W.W.W.W.W.W.W.W.",
"W.W.W.W.W.W.W.W.W.W.W.W.W.W.W.[ [ W.W.W.W.W.W.W.W.W.W.W.W.W.W.W.",
"W.W.W.W.W.W.W.W.W.W.W.W.W.W.<.q.q.<.W.W.W.W.W.W.W.W.W.W.W.W.W.W.",
"W.W.W.W.W.W.W.W.W.W.W.W.W.<.@.} } @.<.W.W.W.W.W.W.W.W.W.W.W.W.W.",
"W.W.W.W.W.W.W.W.W.W.W.W.<.:.: 1.1.: :.<.W.W.W.W.W.W.W.W.W.W.W.W.",
"W.W.W.W.W.W.W.W.W.W.W.<.-.v t 1.1.t v -.<.W.W.W.W.W.W.W.W.W.W.W.",
"W.W.W.W.W.W.W.W.W.W.<.;.7 B y 1.1.y B 7 ;.<.W.W.W.W.W.W.W.W.W.W.",
"W.W.W.W.W.W.W.W.W.<.%.b d N y 1.1.y N d b %.<.W.W.W.W.W.W.W.W.W.",
"W.W.W.W.W.W.W.W.<.;.7 N j N y 1.1.y N j N 7 ;.<.W.W.W.W.W.W.W.W.",
"W.W.W.W.W.W.W.,.=.b d M j N y 1.1.y N j M d b =.,.W.W.W.W.W.W.W.",
"W.W.W.W.W.W.W.C 8 n k M j N y 1.1.y N j M k n 8 C W.W.W.W.W.W.W.",
"W.W.W.W.W.W.W.s l m k M j N y 2.2.y N j M k m l s W.W.W.W.W.W.W.",
"W.W.W.W.W.W.W.g l m k M j V r { { r V j M k m l g W.W.W.W.W.W.W.",
"W.W.W.W.W.W.W.g l m k M d c O.0.0.O.c d M k m l g W.W.W.W.W.W.W.",
"W.W.W.W.W.W.W.g l m k N 9 #.w.r.r.w.#.9 N k m l g W.W.W.W.W.W.W.",
"W.W.W.W.W.W.W.g l m d x &.w.9.` ` 9.w.&.x d m l g W.W.W.W.W.W.W.",
"W.W.W.W.W.W.W.g l M 0 o.w.9.) / / ) 9.w.o.0 M l g W.W.W.W.W.W.W.",
"W.W.W.W.W.W.W.g f z *.w.9.( 6.m.m.6.( 9.w.*.z f g W.W.W.W.W.W.W.",
"W.W.W.W.W.W.A q h X.w.9.( 6.D.l.l.D.6.( 9.w.X.h w K W.W.W.W.W.W.",
"W.W.W.W.W.W.I p $.w.9.( 6.F.h.e e h.F.6.( 9.w.$.a P W.W.W.W.W.W.",
"W.W.W.W.W.W.L +.e.9.( 5.H.L.i u.u.i L.H.5.( 9.e.+.L W.W.W.W.W.W.",
"W.W.W.W.W.W.R 8.9.( 5.G.T.U.b.u u b.U.T.G.5.( 9.8.R W.W.W.W.W.W.",
"W.W.W.W.W.W.E >._ 6.J.E.Y.R.I.n.n.I.R.Y.E.J.6._ >.E W.W.W.W.W.W.",
"W.W.W.W.W.W.Y ~ ] A.x.v.P.K.z.W W k.K.P.v.x.A.] ~ Y W.W.W.W.W.W.",
"W.W.W.W.W.W.Y ~  .j.t.y.c.7.= O O - 7.c.y.t.j. .~ Y W.W.W.W.W.W.",
"W.W.W.W.W.W.Y ~ | Q p.i.4.4 + & & % 6 3.i.p.Q | ~ Y W.W.W.W.W.W.",
"W.W.W.W.W.W.Y ~ ..B.a.s.V.1 @ ; ; & 5 V.s.a.B...~ Y W.W.W.W.W.W.",
"W.W.W.W.W.W.Y ~ ' S.C.Z.N.< @ ; ; & 3 M.Z.C.S.' ~ Y W.W.W.W.W.W.",
"W.W.W.W.W.W.Y ^ U f.g.g.d.> # * $ $ , d.g.g.f.U ^ Y W.W.W.W.W.W.",
"W.W.W.W.W.W.Z ! 2 G H J F X   . . . o D J H G 2 ! Z W.W.W.W.W.W.",
"W.W.W.W.W.W.W.T S W.W.W.W.W.W.W.W.W.W.W.W.W.W.S T W.W.W.W.W.W.W.",
"W.W.W.W.W.W.W.W.W.W.W.W.W.W.W.W.W.W.W.W.W.W.W.W.W.W.W.W.W.W.W.W."
};
