/* XPM */
static char *_1a2fa05403d45c3b680acb0bc911aaaOM86f7K6sLsgIRTL[] = {
/* columns rows colors chars-per-pixel */
"32 32 184 2 ",
"   c #9F7858",
".  c #AC6A4E",
"X  c #AF6B4F",
"o  c #B06A4E",
"O  c #B36C4F",
"+  c #B46C4F",
"@  c #B7714F",
"#  c #B46D50",
"$  c #B96C5D",
"%  c #B37455",
"&  c #B67556",
"*  c #B57658",
"=  c #B27E5A",
"-  c #B87A5A",
";  c #BB7B5B",
":  c #BB576F",
">  c #BC576F",
",  c #BD5670",
"<  c #B95974",
"1  c #8A7277",
"2  c #BB6363",
"3  c #BE6563",
"4  c #A77768",
"5  c #B77E65",
"6  c #AE6370",
"7  c #C0566C",
"8  c #C24F76",
"9  c #C15270",
"0  c #C05670",
"q  c #C15076",
"w  c #C25076",
"e  c #CA5771",
"r  c #CC5771",
"t  c #CD5971",
"y  c #D15177",
"u  c #D15178",
"i  c #D25078",
"p  c #CA7F65",
"a  c #7E8B77",
"s  c #7A8D7B",
"d  c #94815D",
"f  c #98845F",
"g  c #BF805E",
"h  c #9C9A6B",
"j  c #9E9F6E",
"k  c #BF8465",
"l  c #A0986C",
"z  c #A29A6F",
"x  c #A29E6D",
"c  c #BB8F7B",
"v  c #8FA577",
"b  c #85AB7D",
"n  c #85AD7D",
"m  c #99A370",
"M  c #90A977",
"N  c #93A578",
"B  c #A4A170",
"V  c #AAA075",
"C  c #B5B37A",
"Z  c #B5B47A",
"A  c #B4B77C",
"S  c #C78056",
"D  c #CB8256",
"F  c #CC8256",
"G  c #C78159",
"H  c #D08457",
"J  c #D08558",
"K  c #D68A5B",
"L  c #C68662",
"P  c #CB8A61",
"I  c #CC8B62",
"U  c #C88965",
"Y  c #C98A66",
"T  c #CF8369",
"R  c #CF8469",
"E  c #C08B69",
"W  c #D08369",
"Q  c #D3836A",
"!  c #D0866A",
"~  c #D3876A",
"^  c #D49264",
"/  c #D3976A",
"(  c #D9986B",
")  c #DB9B6B",
"_  c #DF9A6A",
"`  c #DB9B6C",
"'  c #DC9A6C",
"]  c #CF9F72",
"[  c #C1937C",
"{  c #C5977D",
"}  c #C5987E",
"|  c #CB987A",
" . c #DE9F70",
".. c #E09B69",
"X. c #E19E6E",
"o. c #D7A073",
"O. c #D8A072",
"+. c #DDA972",
"@. c #C7BB7F",
"#. c #C8BF7F",
"$. c #E7A774",
"%. c #E8A674",
"&. c #E2AD75",
"*. c #E3AE75",
"=. c #E9AA76",
"-. c #E5B277",
";. c #E3B17D",
":. c #837E90",
">. c #7C9280",
",. c #6A87AB",
"<. c #758AA9",
"1. c #698EB8",
"2. c #AC8B81",
"3. c #B19186",
"4. c #A69993",
"5. c #A59D9A",
"6. c #A6A5A4",
"7. c #C59881",
"8. c #C29885",
"9. c #CEA287",
"0. c #CBA18B",
"q. c #CFA288",
"w. c #CDA794",
"e. c #CEA994",
"r. c #D0AD99",
"t. c #CEB09F",
"y. c #EDB184",
"u. c #EDB484",
"i. c #EFBA84",
"p. c #F1B083",
"a. c #F3B683",
"s. c #F3B883",
"d. c #F4BB83",
"f. c #F4BC83",
"g. c #F5BE84",
"h. c #CFB5A5",
"j. c #CABAAD",
"k. c #CFBDAF",
"l. c #CFBEAF",
"z. c #D2B8A7",
"x. c #D4B8A6",
"c. c #C8C080",
"v. c #CBC181",
"b. c #E0C582",
"n. c #E1C583",
"m. c #EEC984",
"M. c #F3C481",
"N. c #F1C084",
"B. c #F6C184",
"V. c #F7C584",
"C. c #F7C883",
"Z. c #F7C984",
"A. c #F4CA84",
"S. c #F4CA85",
"D. c #F8C983",
"F. c #F8C984",
"G. c #F8CA84",
"H. c #F4CB88",
"J. c #F4CC8A",
"K. c #F8CB89",
"L. c #F8CC8B",
"P. c #F8CD8E",
"I. c #F8CE91",
"U. c #F8CF94",
"Y. c #F8D096",
"T. c #F8D299",
"R. c #CCC3B8",
"E. c #CEC5BB",
"W. c #D3C0B2",
"Q. c #D1C5B9",
"!. c #D7C8BA",
"~. c #F8D4A0",
"^. c #F8D5A1",
"/. c #DACEC1",
"(. c #DDD3C6",
"). c #DED3C7",
"_. c #DED4C7",
"`. c #E9D8C7",
"'. c #EADBCB",
"]. c #EEE0D0",
"[. c #ECE1D2",
"{. c #F1E6D6",
"}. c #F2E7D7",
"|. c #F1E8D8",
/* pixels */
"F.F.F.F.F.F.F.F.F.F.F.F.F.F.C.M.M.C.C.Z.F.F.F.F.F.F.F.F.F.F.F.F.",
"F.F.F.F.F.F.F.F.F.F.F.P.I.F.*./ / *.F.F.F.F.F.F.F.F.F.F.F.F.F.F.",
"F.F.F.F.V.B.F.F.F.F.F.Z.F.*.' %.%.' *.H.P.F.F.F.F.F.F.F.F.F.F.F.",
"F.F.F.V.a.p.d.F.F.F.F.V.*.` I I P I _ ;.^.P.F.F.F.F.F.F.F.F.F.F.",
"F.F.F.g.p.p.p.V.Z.F.F.*...! 2 .._ $ ! ) ;.L.Z.Z.F.F.F.F.F.F.F.F.",
"F.F.F.Z.s.p.g.F.Z.Z.*.' ! e 3 .._ 2 t ! ..*.Z.Z.F.F.F.F.F.F.F.F.",
"F.F.F.F.V.B.F.F.Z.*.` R , u 3 ' _ 7 y > ! ..*.F.F.F.F.F.F.F.F.F.",
"F.F.F.F.F.F.F.F.*._ ! t 8 u 3 .._ 2 t w t ! ' *.K.U.F.F.F.F.F.F.",
"F.F.F.F.F.F.C.*.( ~ > u 8 i 3 .._ 3 u w u , ! ' *.Z.F.F.F.F.F.F.",
"F.F.F.F.F.F.-.( ! t w y , u 3 ' _ 3 u w u q t W ( -.F.F.F.F.F.F.",
"F.D.F.F.F.F.+.p : y w y 8 u 3 .._ 3 u w u q i , p +.Z.Z.K.P.F.F.",
"F.D.L.L.F.D.o.7 w y w y 8 i 3 ..( 3 u q u q i 8 7  .Z.H.T.^.T.F.",
"F.F.K.L.F.F.o.9 w r , i 8 i 2 Y I 2 y w i 8 i 8 , o.F.L.T.T.U.K.",
"F.F.F.F.F.F.o.9 8 i w u 8 e T X.X.! r w r w e 8 ,  .D.F.K.P.F.F.",
"F.F.F.F.F.F.o.9 8 u q u , W $.=.=.$.W > u 8 u 8 8  .F.F.F.F.F.F.",
"F.F.F.F.F.F.o.9 8 u 8 e ! $...K K ..$.W e 8 y 8 9 ] F.F.F.F.F.F.",
"F.F.F.Z.Z.Z.X.0 8 y > T =.) F S G H ..%.R , u 8 9 O.F.F.F.F.F.F.",
"F.F.B.V.Z.F.o.0 8 r W $._ H } j.j.} H ..%.! e 8 9 ] F.Z.F.F.F.F.",
"F.V.y.d.F.Z.V , 7 T $...H } !.0.0.!.} H ..%.! 7 < N Z.Z.F.F.F.F.",
"F.V.g.B.Z.Z.n 6 W $...H { (.8.1 1 7./.} J ..%.Q 6 n Z.Z.F.F.F.F.",
"F.F.F.F.Z.S.M k %...H } `.'.5 ,.,.5 '.(.{ F ..=.E v N.Z.F.F.F.F.",
"F.F.F.F.Z.Z.B o...H { (.}.[.t.4 4 t.}.}.(.{ F _ O.z u.B.F.F.F.F.",
"F.F.F.F.F.F.B ^ H 7.(.}.}.}.[.h.h.[.}.}.}.`.[ D ^ z y.f.F.F.F.F.",
"F.F.F.F.F.F.x F L l.e.r.[.`.q.k k 9.`.[.r.w.W.L D z i.F.F.F.F.F.",
"F.F.F.F.F.Z.x D U 8.<.:.w.| # . . % | e.4.<.3.Y D x A.Z.Z.Z.F.F.",
"F.F.F.F.F.Z.x D Y c ,.<.[ * X o + # ; [ ,.1.[ Y F x Z.Z.Z.Z.F.F.",
"F.F.F.F.Z.S.x D Y z.2.3.x.- o # + + - z.c c z.Y F x C.Z.F.F.F.F.",
"F.F.K.I.J.S.x D L E.R.E.l.& # # + + * j./.6.Q.k F x C.C.F.F.F.F.",
"V.K.T.^.T.J.x D g 5.6.6.4.% o + + + & 4.6.6.5.g F x Z.F.F.F.F.F.",
"F.F.U.^.Y.J.j D = s >.>.a   d f f d   a s s s g T m A.F.F.F.F.F.",
"F.F.K.K.Z.Z.A h m c.n.n.#.C v.n.n.v.C @.b.b.#.m h C F.F.F.F.F.F.",
"F.F.F.F.Z.Z.C.m.Z.D.C.F.F.F.F.F.F.D.D.D.C.C.C.m.m.C.F.F.F.F.F.F."
};
