/* XPM */
static char *result[] = {
/* columns rows colors chars-per-pixel */
"32 32 235 2 ",
"   c #1F0E09",
".  c #1F0E0A",
"X  c #1F0F0B",
"o  c #190D0D",
"O  c #1E0F0C",
"+  c #1F0F0C",
"@  c #1F100C",
"#  c #1D100F",
"$  c #1E100E",
"%  c #090B16",
"&  c #0D0D18",
"*  c #0E0E19",
"=  c #0C0E1A",
"-  c #100D14",
";  c #110E15",
":  c #130F15",
">  c #120F16",
",  c #150F14",
"<  c #140F15",
"1  c #190F10",
"2  c #1B1010",
"3  c #20100C",
"4  c #20100D",
"5  c #21120D",
"6  c #22130E",
"7  c #25140E",
"8  c #2B1811",
"9  c #2A1911",
"0  c #2B1912",
"q  c #2E1A11",
"w  c #2C1912",
"e  c #2E1A12",
"r  c #2E1C12",
"t  c #2E1D13",
"y  c #2F1D13",
"u  c #281A17",
"i  c #261D1D",
"p  c #261D1E",
"a  c #261E1E",
"s  c #2D1D18",
"d  c #2D1D19",
"f  c #321D14",
"g  c #341F15",
"h  c #3C2519",
"j  c #1A1821",
"k  c #1E2336",
"l  c #1E2436",
"z  c #2F2426",
"x  c #2F2427",
"c  c #292329",
"v  c #2C252B",
"b  c #302527",
"n  c #31282E",
"m  c #382D2D",
"M  c #392E2C",
"N  c #3D302C",
"B  c #3D302D",
"V  c #292C3D",
"C  c #362D31",
"Z  c #3E3433",
"A  c #3D3436",
"S  c #432B1D",
"D  c #432C1F",
"F  c #4A2F1D",
"G  c #462F21",
"H  c #463022",
"J  c #473023",
"K  c #4B3120",
"L  c #503421",
"P  c #503422",
"I  c #503522",
"U  c #503623",
"Y  c #563924",
"T  c #573924",
"R  c #563A26",
"E  c #573A26",
"W  c #583A25",
"Q  c #583B27",
"!  c #593C27",
"~  c #513829",
"^  c #5A3D28",
"/  c #5A3E2A",
"(  c #473733",
")  c #483733",
"_  c #483833",
"`  c #413738",
"'  c #413838",
"]  c #4B3E3B",
"[  c #4D3D38",
"{  c #4E3E39",
"}  c #5E402A",
"|  c #5F402A",
" . c #544037",
".. c #544138",
"X. c #55443E",
"o. c #55443F",
"O. c #56443E",
"+. c #56453F",
"@. c #6A492E",
"#. c #6A492F",
"$. c #6B4A31",
"%. c #6C4B32",
"&. c #6D4D34",
"*. c #735035",
"=. c #745135",
"-. c #745136",
";. c #755236",
":. c #755338",
">. c #765338",
",. c #765438",
"<. c #2D3040",
"1. c #293147",
"2. c #2F374E",
"3. c #30374D",
"4. c #333B52",
"5. c #423D45",
"6. c #433F48",
"7. c #3E4964",
"8. c #474349",
"9. c #554540",
"0. c #574540",
"q. c #564641",
"w. c #564642",
"e. c #574642",
"r. c #5A4943",
"t. c #45485A",
"y. c #44485B",
"u. c #45485B",
"i. c #504F5F",
"p. c #595057",
"a. c #5B5258",
"s. c #614E45",
"d. c #624F46",
"f. c #625048",
"g. c #645149",
"h. c #645349",
"j. c #6A584E",
"k. c #796353",
"l. c #7B6454",
"z. c #7A6455",
"x. c #7C6556",
"c. c #474C62",
"v. c #414C67",
"b. c #484F60",
"n. c #4C4E60",
"m. c #484E64",
"M. c #4C5169",
"N. c #4E5669",
"B. c #525162",
"V. c #5D5965",
"C. c #53596F",
"Z. c #565A6F",
"A. c #575C6E",
"S. c #4A5573",
"D. c #4A5674",
"F. c #4E5A79",
"G. c #545C77",
"H. c #585B70",
"J. c #585C71",
"K. c #585E78",
"L. c #5A6179",
"P. c #596379",
"I. c #5B627A",
"U. c #5C627A",
"Y. c #5A637E",
"T. c #61657B",
"R. c #62657B",
"E. c #62667B",
"W. c #61667C",
"Q. c #62667D",
"!. c #62677D",
"~. c #62677E",
"^. c #62677F",
"/. c #63687E",
"(. c #63687F",
"). c #856D5B",
"_. c #866E5B",
"`. c #876E5C",
"'. c #876F5C",
"]. c #886F5C",
"[. c #576484",
"{. c #5D6682",
"}. c #5C6787",
"|. c #5E6A89",
" X c #5C698B",
".X c #5C6A8B",
"XX c #5C6A8C",
"oX c #5D6B8C",
"OX c #5C6A8D",
"+X c #5E6D8F",
"@X c #5F6D8F",
"#X c #616883",
"$X c #626984",
"%X c #636A84",
"&X c #656D88",
"*X c #6A7289",
"=X c #717587",
"-X c #727586",
";X c #737586",
":X c #747789",
">X c #747889",
",X c #657192",
"<X c #677394",
"1X c #657499",
"2X c #677599",
"3X c #66769B",
"4X c #68789D",
"5X c #69789D",
"6X c #69799E",
"7X c #6A799E",
"8X c #7B89A8",
"9X c #7D8CAC",
"0X c #91929A",
"qX c #96959B",
"wX c #97969B",
"eX c #97969D",
"rX c #98979E",
"tX c #8C95A6",
"yX c #959DAA",
"uX c #98A0AD",
"iX c #9CA5B3",
"pX c #A0A0A4",
"aX c #A1A1A4",
"sX c #A6A4A5",
"dX c #A7A5A6",
"fX c #A8A5A6",
"gX c #A8A6A6",
"hX c #A9A6A6",
"jX c #A9A7A7",
"kX c #A5B0C2",
"lX c #A6B2C4",
"zX c #B8C2CE",
"xX c #BAC3CE",
"cX c #BAC4CF",
"vX c None",
/* pixels */
"vXvXvXvXvXvXvXvXvXvXvXvXvXvXvXvXvXvXvXvXvXvXvXvXvXvXvXvXvXvXvXvX",
"vXvXvXvXvXvXvXvXvXvXvXvXvXvXvXvXvXvXvXvXvXvXvXvXvXvXvXvXvXvXvXvX",
"vXvXvXvX3 X .     . X 3 3 3 3 3 3 3 3 3 3 X .     . X 3 vXvXvXvX",
"vXvXvXvX8 d z n n x d 0 0 w w w w w w 0 0 d x n n z d 8 vXvXvXvX",
"vXvX3 8 h _ i.G.G.i.( S S D D D D D D S S ( i.G.G.i._ h 8 3 vXvX",
"vXvX@ e K g.>X9X9X:Xf.! ^ / / / / / / ^ ! f.:X9X9X>Xg.K e @ vXvX",
"vXvX+ f Q x.rXlXlXeXz.$.%.&.&.&.&.&.&.%.$.z.eXlXlXrXx.Q f + vXvX",
"vXvXO g | ].jXcXcXgX_.=.;.,.,.,.,.,.,.;.=._.gXcXcXjX].| g O vXvX",
"vXvXO g | '.hXxXxXdX).=.;.>.>.>.>.>.>.;.=.).dXxXxXhX'.| g O vXvX",
"vXvXO g } `.fXzXzXsX).*.-.:.:.:.:.:.:.-.*.).sXzXzXfX`.} g O vXvX",
"vXvXO g } `.fXzXzXsX).*.-.:.:.:.:.:.:.-.*.).sXzXzXfX`.} g O vXvX",
"vXvXO g | '.hXxXxXdX).=.;.>.>.>.>.>.>.;.=.).dXxXxXhX'.| g O vXvX",
"vXvXO g | ].jXcXcXgX_.=.;.,.,.,.,.,.,.;.=._.gXcXcXjX].| g O vXvX",
"vXvX+ f W l.wXkXkXqXk.@.#.$.$.$.$.$.$.#.@.k.qXkXkXwXl.W f + vXvX",
"vXvX@ q F d.;X8X8X-Xs.T Y R E E E E R Y T s.-X8X8X;Xd.F q @ vXvX",
"vXvXX s ) a.%X3X3X#Xp.r.h.j.j.j.j.j.j.h.r.p.#X3X3X%Xa.) s X vXvX",
"vXvX  b B.&X<X2X2X,X$X=X0XaXaXpXpXaXaX0X=X$X,X2X2X<X&XB.b   vXvX",
"vXvX. x n.{.|.oXoX}.Y.*XtXiXuXyXyXuXiXtX*XY.}.oXoX|.{.n.x . vXvX",
"vXvX3 u m 6.m.S.S.c.5.8.A.P.N.b.b.N.P.A.8.5.c.S.S.m.6.m u 3 vXvX",
"vXvX4 7 r M y.D.D.t.N B u.7.1.l l 1.7.u.B N t.D.D.y.M r 7 4 vXvX",
"vX, $ 7 r Z C.@X+XH.[ { J.F.2.k k 2.F.J.{ [ H.+X@XC.Z r 7 $ , vX",
"vX: # 7 t ` U.6X6XE.O.0./.OXv.4.4.v.OX/.0.O.E.6X6XU.` t 7 # : vX",
"vX: # 7 t ` I.5X5XR.X.+.~.1XXX[.[.XX1X~.+.X.R.5X5XI.` t 7 # : vX",
"vX< $ 7 y ` I.5X4XT.o. .V.^.(././.(.^.V. .o.T.4X5XI.` y 7 $ < vX",
"vX< $ 7 y ' I.5X4XW.9.~ ..w.w.e.e.w.w...~ 9.W.4X5XI.' y 7 $ < vX",
"vX> 2 6 9 A L.6X6XQ.q.P L I I I I I I L P q.Q.6X6XL.A 9 6 2 > vX",
"= * > 1 5 C K.7X7X!.q.I I U U U U U U I I q.!.7X7XK.C 5 1 > * = ",
"vXvXvX- o v M..X XZ.] G H J J J J J J H G ] Z. X.XM.v o - vXvXvX",
"vXvXvX& ; j V 3.3.<.c i p a a a a a a p i c <.3.3.V j ; & vXvXvX",
"vXvXvXvXvXvXvXvXvXvXvXvXvXvXvXvXvXvXvXvXvXvXvXvXvXvXvXvXvXvXvXvX",
"vXvXvXvXvXvXvX% % vXvXvXvXvXvXvXvXvXvXvXvXvXvX% % vXvXvXvXvXvXvX",
"vXvXvXvXvXvXvX= = = = = = = = = = = = = = = = = = vXvXvXvXvXvXvX"
};
