/* XPM */
static char *result[] = {
/* columns rows colors chars-per-pixel */
"25 25 151 2 ",
"   c #5E5858",
".  c #615A5B",
"X  c #645D5E",
"o  c #676160",
"O  c #6A6463",
"+  c #6A6464",
"@  c #6A6566",
"#  c #6E6969",
"$  c #6F6969",
"%  c #706969",
"&  c #756E6E",
"*  c #746F6E",
"=  c #766F6F",
"-  c #767677",
";  c #797272",
":  c #7B7374",
">  c #7C7575",
",  c #7D7575",
"<  c #7D7576",
"1  c #7D7676",
"2  c #7E7777",
"3  c #737578",
"4  c #7E7778",
"5  c #7A7A7B",
"6  c #7B7A7B",
"7  c #7C7879",
"8  c #7F7878",
"9  c #7F7A7B",
"0  c #787B7E",
"q  c #7F7D7D",
"w  c #807B7B",
"e  c #817C7D",
"r  c #827E7F",
"t  c #797F81",
"y  c #7D878B",
"u  c #838081",
"i  c #848182",
"p  c #858486",
"a  c #878587",
"s  c #81868A",
"d  c #84888A",
"f  c #87888A",
"g  c #88888A",
"h  c #8A8A8B",
"j  c #89898C",
"k  c #898A8C",
"l  c #8A8C8F",
"z  c #858C90",
"x  c #8B8D90",
"c  c #8C8E90",
"v  c #8C8E91",
"b  c #8D8F91",
"n  c #869094",
"m  c #899093",
"M  c #8C9092",
"N  c #8D9194",
"B  c #8E9295",
"V  c #8E9395",
"C  c #8F9395",
"Z  c #8E9396",
"A  c #8F9598",
"S  c #8E969B",
"D  c #909699",
"F  c #919699",
"G  c #93989A",
"H  c #92989B",
"J  c #95989B",
"K  c #91989C",
"L  c #91999C",
"P  c #90999D",
"I  c #91999D",
"U  c #929A9D",
"Y  c #939A9D",
"T  c #919A9E",
"R  c #919B9F",
"E  c #929B9E",
"W  c #929B9F",
"Q  c #939B9F",
"!  c #959A9C",
"~  c #949A9D",
"^  c #959A9D",
"/  c #969B9D",
"(  c #949B9E",
")  c #959B9E",
"_  c #949B9F",
"`  c #939C9F",
"'  c #949C9F",
"]  c #929CA0",
"[  c #939CA0",
"{  c #939DA0",
"}  c #929DA1",
"|  c #939DA1",
" . c #939EA2",
".. c #949CA0",
"X. c #949DA0",
"o. c #949DA1",
"O. c #959DA1",
"+. c #969DA0",
"@. c #969DA1",
"#. c #9BA1A5",
"$. c #9EA4A6",
"%. c #A2A5A7",
"&. c #A3A6A7",
"*. c #A2A7A9",
"=. c #A5A6A8",
"-. c #A3A8AA",
";. c #A5A8AA",
":. c #A8A8AB",
">. c #A9ACAE",
",. c #A9ADAF",
"<. c #AAADAE",
"1. c #ABAEB1",
"2. c #AEB1B2",
"3. c #B0B0B1",
"4. c #B4B7B8",
"5. c #B7B9BB",
"6. c #B8BABC",
"7. c #B9BABC",
"8. c #B9BBBC",
"9. c #BEBFC1",
"0. c #BFBFC2",
"q. c #BEC0C2",
"w. c #BFC0C2",
"e. c #C1C1C3",
"r. c #C1C2C4",
"t. c #C2C3C4",
"y. c #C2C3C5",
"u. c #C3C3C5",
"i. c #C2C4C6",
"p. c #C3C4C6",
"a. c #C4C5C6",
"s. c #C5C6C7",
"d. c #C6C7C8",
"f. c #C6C7C9",
"g. c #C7C8CA",
"h. c #C8C8CA",
"j. c #C8C9CA",
"k. c #C8C9CB",
"l. c #C9C9CB",
"z. c #C9CACB",
"x. c #C8CACC",
"c. c #C9CACC",
"v. c #C9CBCD",
"b. c #CACACC",
"n. c #CACBCC",
"m. c #CACBCD",
"M. c #CBCBCD",
"N. c #CACCCD",
"B. c #CBCCCD",
"V. c #CCCCCE",
"C. c None",
/* pixels */
"C.C.C.C.C.C.C.C.C.C.C.C.C.C.C.C.C.C.C.C.C.C.C.C.C.",
"C.C.C.C.C.C.C.C.C.C.C.C.C.C.C.C.C.C.C.C.C.C.C.C.C.",
"C.C.C.C.C.C.C.C.C.C.C.C.C.C.C.C.C.C.C.C.C.C.C.C.C.",
"C.C.C.C.C.C.C.C.C.C.C.C.C.C.C.C.C.C.C.C.C.C.C.C.C.",
"C.C.C.C.C.C.C.C.C.<.7.y.s.t.8.2.&.C.C.C.C.C.C.C.C.",
"C.C.C.C.C.C.;.q.f.c.m.m.n.c.z.z.g.a.3.C.C.C.C.C.C.",
"C.C.C.C.C.C.i.v.x.z.b.b.n.b.c.c.n.N.d.:.C.C.C.C.C.",
"C.C.C.C.C.q.m.k.k.z.b.b.b.m.m.c.z.c.c.0.C.C.C.C.C.",
"C.C.C.C.J k.n.z.l.l.z.c.c.b.b.c.z.z.l.k.=.C.C.C.C.",
"C.C.C.C.S 6.M.b.z.k.k.k.k.l.z.c.b.b.m.9./ t C.C.C.",
"C.C.C.n | #.u.B.c.k.k.k.l.z.c.b.n.V.j.%.Y V C.C.C.",
"C.C.y | | R -.e.h.b.b.b.c.b.m.M.c.p.>.H ) ! d C.C.",
"C.C.z  .| } T +.$.,.4.w.s.r.5.1.*.@.U _ ) ^ b C.C.",
"C.C.0 P | | [ { ] R W ' +.@.Q E [ o.o.' ( G q C.C.",
"C.C.C.s ] | | | o.| o.| [ X.O.o.o.o.o.' ~ h C.C.C.",
"C.C.C.C.m o.| | o.o.o.o.o.o.o.o.o.o.o...C * C.C.C.",
"C.C.C.C.3 Z L W ..o.o.| { o.o.o.X.` U F 6 C.C.C.C.",
"C.C.C.C.C.- f x N A K E [ W I D B c j 5 C.C.C.C.C.",
"C.C.C.C.C.C.@ 7 u p g l M v k a i 9 # C.C.C.C.C.C.",
"C.C.C.C.C.C.C.. = 1 4 w r e 8 2 ; o C.C.C.C.C.C.C.",
"C.C.C.C.C.C.C.C.C.$ > , , , < &   C.C.C.C.C.C.C.C.",
"C.C.C.C.C.C.C.C.C.C.+ : 1 > % C.C.C.C.C.C.C.C.C.C.",
"C.C.C.C.C.C.C.C.C.C.C.X = O C.C.C.C.C.C.C.C.C.C.C.",
"C.C.C.C.C.C.C.C.C.C.C.C.C.C.C.C.C.C.C.C.C.C.C.C.C.",
"C.C.C.C.C.C.C.C.C.C.C.C.C.C.C.C.C.C.C.C.C.C.C.C.C."
};
