/* XPM */
static char *result[] = {
/* columns rows colors chars-per-pixel */
"32 32 174 2 ",
"   c #060505",
".  c #080707",
"X  c #080807",
"o  c #0B0B0B",
"O  c #0F0F12",
"+  c #0E1213",
"@  c #141616",
"#  c #13141D",
"$  c #1A1919",
"%  c #171821",
"&  c #1A1B25",
"*  c #151721",
"=  c #1E232A",
"-  c #1E292C",
";  c #1E2130",
":  c #22242C",
">  c #222C2F",
",  c #2B2D2E",
"<  c #242F31",
"1  c #2D2F30",
"2  c #242839",
"3  c #2F3032",
"4  c #2D3A3D",
"5  c #293437",
"6  c #323435",
"7  c #383736",
"8  c #343638",
"9  c #37383A",
"0  c #3A3C3D",
"q  c #343C41",
"w  c #3B3C42",
"e  c #343847",
"r  c #343953",
"t  c #393E58",
"y  c #3E4042",
"u  c #3D414B",
"i  c #3E435C",
"p  c #444445",
"a  c #484747",
"s  c #44464B",
"d  c #4B4B4A",
"f  c #444750",
"g  c #464952",
"h  c #494C56",
"j  c #4B4E58",
"k  c #4F5059",
"l  c #515457",
"z  c #55595D",
"x  c #585C5E",
"c  c #404767",
"v  c #43496A",
"b  c #445E65",
"n  c #515E63",
"m  c #464D72",
"M  c #494F71",
"N  c #4B5274",
"B  c #545A74",
"V  c #585E77",
"C  c #5E6163",
"Z  c #566368",
"A  c #5E696C",
"S  c #5A6569",
"D  c #5E657F",
"F  c #52737D",
"G  c #626567",
"H  c #666668",
"J  c #616C6F",
"K  c #6A6C6D",
"L  c #6E6F71",
"P  c #747473",
"I  c #757A7D",
"U  c #525A84",
"Y  c #5F6580",
"T  c #597A83",
"R  c #567881",
"E  c #646B8B",
"W  c #6A6F88",
"Q  c #636A84",
"!  c #777C82",
"~  c #797E83",
"^  c #6B7295",
"/  c #6E769B",
"(  c #70789C",
")  c #787E9F",
"_  c #747DA0",
"`  c #797FA1",
"'  c #7F8488",
"]  c #7B8086",
"[  c #7A829E",
"{  c #719DAA",
"}  c #79A9B7",
"|  c #80858A",
" . c #84898E",
".. c #848B97",
"X. c #888E9E",
"o. c #868D9C",
"O. c #979796",
"+. c #9D9C9C",
"@. c #858DAA",
"#. c #8A92AE",
"$. c #949BA4",
"%. c #999FA4",
"&. c #8F96B1",
"*. c #9097B1",
"=. c #9299B3",
"-. c #83A5AF",
";. c #9EA4AA",
":. c #9CA2A7",
">. c #86A9B3",
",. c #88ACB7",
"<. c #8DB1BD",
"1. c #92B3BD",
"2. c #A1A6AC",
"3. c #A3A8AD",
"4. c #A1A7B0",
"5. c #A6ACB2",
"6. c #AAAEB4",
"7. c #A6ADBB",
"8. c #A6B0B6",
"9. c #ACB1B6",
"0. c #A7B0B8",
"q. c #ACB3BC",
"w. c #B3BABE",
"e. c #B9BABC",
"r. c #95B7C1",
"t. c #ABB3C3",
"y. c #B4BDC2",
"u. c #BEBFC1",
"i. c #B3BBCC",
"p. c #89C0D0",
"a. c #8ECADB",
"s. c #91CDDF",
"d. c #BCC0C4",
"f. c #BCC4CE",
"g. c #B4C6CE",
"h. c #B5C7D0",
"j. c #BBC3D2",
"k. c #BACCD5",
"l. c #A9D5E1",
"z. c #ADD9E5",
"x. c #B0DCE9",
"c. c #C2C3C4",
"v. c #CBCACA",
"b. c #C1C9D3",
"n. c #CACDD2",
"m. c #C4CAD7",
"M. c #CED1D2",
"N. c #CDD4DC",
"B. c #D4D4D4",
"V. c #D1D4DF",
"C. c #D3D6E1",
"Z. c #D5DBE2",
"A. c #D9DEE5",
"S. c #DCDFE9",
"D. c #C0E0E9",
"F. c #DCE6EA",
"G. c #DEE9EC",
"H. c #DAE0E6",
"J. c #C5E7F0",
"K. c #E3E6EA",
"L. c #E4E9ED",
"P. c #E2E5E7",
"I. c #E5ECF0",
"U. c #EDEFF1",
"Y. c #E4F2F6",
"T. c #ECF0F5",
"R. c #EBF6F9",
"E. c #EEFAFD",
"W. c #E6F5F9",
"Q. c #F3F4F6",
"!. c #F4F6F8",
"~. c #F6F8FA",
"^. c #FEFFFF",
"/. c None",
/* pixels */
"/./././././././././..                   /./././././././././././.",
"/./././././././././.y s p a a p s a a y /./././././././././././.",
"/./././././..     0 +.c.c.c.c.c.c.c.c.+.0     . /./././.O o /./.",
"/./././././.8 9 p P B.^.^.^.^.^.^.^.^.B.P w 9 8 /./././.o o /./.",
"/./././.  6 ~ 3.e.B.Q.^.^.^.^.^.^.^.^.Q.B.e.3.~ 1   /./.o o /./.",
"/./././.6 C w.T.^.^.^.^.^.^.^.^.^.^.^.^.^.^.U.w.C 6 /./.o @ /./.",
"/./.. 8 ' e.K.^.^.^.^.^.^.^.^.^.^.^.^.^.^.^.^.K.w.~ 3   o o /./.",
"/./.. , ~ 9.d.M.G.R.^.~.R.Y.Y.W.W.G.v.M.F.F.M.v.N.q.K 7 $ o /./.",
"/./.. @ 6 0 p J 1.J.~.R.D.l.l.z.x.1.A A 1.1.A H 6.V.n.O.7   /./.",
"/./.9 3 @     : F r.Y.R.z.a.a.p.} F = 4 -.} 4 6 $.Z.S.6.h * /./.",
". 9 | ~ 3     @ - J B.E.x.s.s.} b - o y e.w.y 6 :.f.*.^ N r & o ",
". p 9.9.p   X X   8 O.d.>.{ { T >     d v.v.a 9 %.f.&.` ` V : o ",
". s c.c.a X X X X $ 7 y y 4 4 < @     d v.v.s 7 $.V.Z.V.j...7 . ",
"  s d.c.s + < < @ X           . X . . p y.y.y 6 $.V.A.V.j.o.8 . ",
". p 6.9.0 > F T <         X     X     9 >.-.8 7 :.j.=.` ) V : o ",
". 9 ]  .l Z <.<.Z y p d d y y y y 0 0 Z ,.,.n n 6.h.#.Y m r & o ",
"/./.6 l ..q.k.k.6.5.c.v.v.e.5.;.:.;.;.8.h.g.5.0.b.N.j.o.u & /./.",
"/./.  6 | :.;.4.t.i.c.B.U.I.b.t.t.t.4.;.t.t.t.t.;.:.:.' 9   /./.",
"/./././.9 0 0 h E W k K y.m.@./ / Y g g Y ( _ E g 9 9 9 /./././.",
"/./././.X X . # r t 8 x 5.i.@.^ ^ D g u Y E N r 2 & & & /./././.",
"/./././././.o o O e ! 5.f.b.y.t.t.7.:.;.t...w ; r v c r & o /./.",
"/./././././.X @ , G w.H.H.Z.A.Z.H.H.H.H.C.5.C q t m U c = o /./.",
"/./././././.  , I y.P.~.!.Q.Q.!.R.Q.!.U.Z.j.9.] e 2 m m : o /./.",
"/./././././.6 z $.m.Q.^.^.^.^.^.^.^.^.~.F.N.j.$.n w g r % o /./.",
"/./././.. 9 ' $.[ =.S.^.^.^.^.^.^.^.^.^.~.C.*.[ $.~ w % @ o /./.",
"/./././.. 0 ;.i./ ` V.^.^.^.~.Q.!.~.^.^.^.C.` / i.4.w . . o /./.",
"/./././.. w ;.i./ ` V.^.^.^.L.A.A.L.~.^.^.C.` / i.2.0 . /./././.",
"/./././.. 9 ' o.B W n.Q.B.e.2.$.%.2.e.B.U.n.W B o.| 7 . /./././.",
"/./././././.9 6 : j q.d.K y 0 9 9 0 w L u.q.j = 6 0 /./././././.",
"/./././././.. .   9 | I ,   . o . .   , ! | 9 .   . /./././././.",
"/./././././././././.9 , @ o /./././.X @ 1 8 /./././././././././.",
"/./././././././././.X o o o /./././.o o o . /./././././././././."
};
