/* XPM */
static char *_8e691f1e7e540beb254bbf5c6ab8c44TvsRpNxm8HOJnPAL[] = {
/* columns rows colors chars-per-pixel */
"32 32 45 1 ",
"  c #F8C984",
". c #F8CA86",
"X c #F8CA84",
"o c #F8C983",
"O c #F8CD8E",
"+ c #F7C584",
"@ c #F6C184",
"# c #F8C884",
"$ c #F8CB88",
"% c #F8CD8D",
"& c #F8CA87",
"* c #F3B683",
"= c #F1B083",
"- c #F4BB83",
"; c #F8CE91",
": c #F8D5A2",
"> c #F5BE84",
", c #F1B183",
"< c #F8CB89",
"1 c #F7C684",
"2 c #F3B883",
"3 c #F6C384",
"4 c #F8C985",
"5 c #F8CF94",
"6 c #F8CA85",
"7 c #F8CC8B",
"8 c #F8D299",
"9 c #F8D4A0",
"0 c #F8D39B",
"q c #F0AF83",
"w c #F6C284",
"e c #F4BD83",
"r c #F5C084",
"t c #F1B383",
"y c #F2B483",
"u c #F4BC83",
"i c #F8D095",
"p c #F1B283",
"a c #F3B983",
"s c #F8C784",
"d c #F7C784",
"f c #F8D198",
"g c #F8D5A1",
"h c #F8D096",
"j c white",
/* pixels */
"           ..                   ",
"     X    oOOo      o           ",
"   X+@#            $%&          ",
"   +*=-#          o;:%o         ",
"  X>=,,+           <;$          ",
"   12=>#            o           ",
"    13#                  4      ",
"                        &5      ",
"                         .      ",
"                             o  ",
"                           o<%6 ",
"  <7                       <895.",
"  <7                       <895.",
"                           o<%6 ",
"              4              o  ",
"            o50&                ",
"            o50&                ",
" #31          4                 ",
" 3q-X                           ",
" 1-w                    XXX     ",
"  X                     e-rX    ",
"                       -,=trX   ",
"                4     #y,,=uX   ",
"               .i4     +ypa#    ",
"                .       sd#     ",
"                                ",
"   o                            ",
" o&;<o             X            ",
" &fg8<            +-3           ",
" .59h&           X@q>X          ",
"  .7.             d3d           ",
"                                "
};
