/* XPM */
static char *result[] = {
/* columns rows colors chars-per-pixel */
"32 32 6 1 ",
"  c #414B66",
". c black",
"X c #677598",
"o c #242A3D",
"O c #8F9AB0",
"+ c white",
/* pixels */
" ..   .XXX .XX .. XXX .XXX .XX .",
"X. XXX XXXX XXX. XXXXX XXXX XXX.",
"X XXXXXXXXX XXX XXXXXXXXXXX XXX ",
"XoXXXXXOXXXo XXoXXXXXXXOXXXo XXo",
"X XXOOX OO XXX  XXOOOOX OO XXXXX",
"X XOXXOo  OOXXX XOXXXXOo  OOOOOO",
"oo XXXXoooXXXXoo XXXXXXoooXXXXXX",
" oXXX  XoXXX   oXXXX   XoXXXXX  ",
" oX     oXX    oX       oXXX    ",
" o X    o  X   o X      o    X  ",
"ooo    ooo    ooo      ooo      ",
"ooooXXX oooooooooooXXXX oooooooo",
"oooXX  Xo XXXXXoooXXX  Xo XXXXXX",
"XoX  X   XXXXXXXoX   X   XXXXXXX",
"Xo      XXX    Xo       XXX     ",
" o     oX       o      oX       ",
"ooooooooo      oooooooooo       ",
"XXXXoo XXXX ooXXXXXXoo XXXX ooXX",
"   XXoXXX  XoXXX   XXoXXX  XoXXX",
"  X  oX     oX    X  oX     oX  ",
"     oo    oo        oo    oo   ",
"    oooooooooo      oooooooooo  ",
"oo XXXXoooXXXXoo XXXXXXoooXXXXXX",
" oXXX  XoXXX   oXXXX   XoXXXXX  ",
" oX     oXX    oX       oXXX    ",
" o X    o  X   o X      o    X  ",
"ooo    ooo    ooo      ooo      ",
"ooooXXX oooooooooooXXXX oooooooo",
"oooXX  Xo XXXXXoooXXX  Xo XXXXXX",
"XoX  X   XXXXXXXoX       XXXXXXX",
"Xo      XXX    Xo       XXX     ",
" o     oX       o      oX       "
};
