/* XPM */
static char *_96fad0988624a25de0d582508830f5eElK41G7qYFHDGiKX[] = {
/* columns rows colors chars-per-pixel */
"32 32 134 2 ",
"   c #3F767A",
".  c #3F7A7B",
"X  c #5D756F",
"o  c #4C7574",
"O  c #477977",
"+  c #447678",
"@  c #427C7A",
"#  c #487F7B",
"$  c #737466",
"%  c #747F67",
"&  c #89715C",
"*  c #9E7653",
"=  c #967F59",
"-  c #B3724E",
";  c #A97453",
":  c #B47C55",
">  c #C57A50",
",  c #55B83F",
"<  c #54B644",
"1  c #55B840",
"2  c #5CBB45",
"3  c #51B44B",
"4  c #4EAF56",
"5  c #4CAD5C",
"6  c #5EAF59",
"7  c #4FB153",
"8  c #63BF4B",
"9  c #6BB753",
"0  c #72BC5A",
"q  c #479F6F",
"w  c #4B9E6F",
"e  c #43847B",
"r  c #4B817B",
"t  c #468C7C",
"y  c #4C8B7C",
"u  c #5B857C",
"i  c #5A8D7D",
"p  c #479776",
"a  c #479C72",
"s  c #489B71",
"d  c #47927B",
"f  c #529777",
"g  c #589D75",
"h  c #569A7C",
"j  c #669B6E",
"k  c #63877C",
"l  c #698A7D",
"z  c #798B7D",
"x  c #659F71",
"c  c #6A907E",
"v  c #77927D",
"b  c #75997D",
"n  c #4FA566",
"m  c #47A967",
"M  c #49AA63",
"N  c #47A56B",
"B  c #47A968",
"V  c #5FA474",
"C  c #56A876",
"Z  c #54AD7B",
"A  c #54B07C",
"S  c #5AB27D",
"D  c #7DA67C",
"F  c #61B37D",
"G  c #7CB67E",
"H  c #66C14C",
"J  c #6AC34E",
"K  c #6EC552",
"L  c #71C754",
"P  c #75C956",
"I  c #76C758",
"U  c #7CCD59",
"Y  c #968059",
"T  c #9C845C",
"R  c #828C64",
"E  c #898C62",
"W  c #8B947E",
"Q  c #8D9A7E",
"!  c #82BA64",
"~  c #80B87F",
"^  c #A6BA71",
"/  c #A9BE70",
"(  c #C58155",
")  c #87CC5E",
"_  c #90CA5B",
"`  c #84D15C",
"'  c #B8C46D",
"]  c #AAC076",
"[  c #A2E166",
"{  c #A9E467",
"}  c #BDEF6F",
"|  c #BDEF70",
" . c #CDC573",
".. c #91A080",
"X. c #A3AC81",
"o. c #ACAB81",
"O. c #B8AE81",
"+. c #A5B581",
"@. c #A6BD81",
"#. c #AABE81",
"$. c #BCB481",
"%. c #D1A882",
"&. c #C4B281",
"*. c #C7BB84",
"=. c #D6BB83",
"-. c #DCBD84",
";. c #E2BE83",
":. c #E8B984",
">. c #F2B584",
",. c #F4BC84",
"<. c #B3C181",
"1. c #BEC181",
"2. c #C2C282",
"3. c #D3C482",
"4. c #DBC583",
"5. c #E3C484",
"6. c #EEC584",
"7. c #EDC884",
"8. c #EFC988",
"9. c #F6C485",
"0. c #F8C685",
"q. c #F7C885",
"w. c #F5CA84",
"e. c #F7CA85",
"r. c #F8CA85",
"t. c #F5CC8C",
"y. c #F8CB89",
"u. c #F8CC88",
"i. c #F8CD8D",
"p. c #F9CF92",
"a. c #EDD099",
"s. c #F8D195",
"d. c #F8D39C",
"f. c #F8D5A0",
/* pixels */
"r.r.e.r.r.r.r.r.r.r.r.i.r.r.9.e.e.e.r.r.r.r.r.e.r.r.r.r.e.r.r.r.",
"r.r.r.r.r.r.r.r.r.r.r.i.i.r.e. . .7.e.r.r.r.r.r.r.r.r.r.r.r.r.r.",
"r.r.r.r.9.,.e.r.r.r.e.e.r.5.' _ _ ' 5.i.p.i.r.r.r.r.r.r.r.r.r.r.",
"r.r.r.9.>.>.,.9.r.r.r.7.' ! ) { { ) ! ] a.p.r.r.r.r.r.r.r.r.r.r.",
"r.r.r.,.>.>.>.9.r.r.9./ 0 I [ } | { I 0 ] 8.e.e.r.r.r.r.e.r.r.r.",
"r.r.r.r.,.>.9.9.0.8.^ 0 K U [ } | [ U K 0 / e.y.r.r.r.r.r.r.r.r.",
"r.r.r.r.9.9.r.r.4.^ 9 H L P ` [ [ ` P L H 9 ^ 5.9.i.e.y.r.r.0.r.",
"r.r.r.r.r.r.e.*.D 9 < H L P P U U U P L H < 6 D *.i.r.r.r.r.r.r.",
"r.r.r.r.r.r.5.~ n 3 , 8 L P P P P P P L 8 , 3 n D 5.r.r.r.r.r.r.",
"r.r.r.r.r.r.o.g N 3 , 2 L P P P P P P J 8 , 3 M g o.r.e.r.r.r.r.",
"r.r.r.r.r.=.b s M 3 , 2 J K L P P P L J 2 , 3 M a b =.r.i.s.i.r.",
"r.r.i.i.r.Q f N 5 < , , 2 2 H L L J 2 2 , , 3 5 N f ..t.s.d.s.i.",
"r.r.y.y.-.c s N M 7 < , , , 2 8 8 2 , , , < 5 m m a l -.s.d.s.r.",
"r.r.r.e.O.i p B m n 7 , 1 , 1 , , , 1 , < 3 m m B a i O.i.i.i.r.",
"r.r.r.6.Q y s B m m M 4 3 1 1 , 1 1 1 3 7 5 m m B p y Q 6.r.r.r.",
"r.r.9.5.l t p B m m m M M 7 3 7 4 3 3 5 M m m B w d t l 5.r.r.r.",
"e.y.y.=.u t d N B B B B m M M M m 5 M m B B B N p d t u =.e.r.r.",
"r.0.9.=.k t t d a B B B m m m m m m m m m m B a d d . u -.r.r.r.",
"r.9.>.:.W r t t d q q N B B m m m N N B N N a d d t r ..6.r.r.r.",
"r.0.>.,. .u t t d d p p a a a N N s s p d p d d t e u &.y.r.r.r.",
"r.r.r.e.u.Q r e d t d d t t d p p d d d d t t t r r Q 6.9.r.r.r.",
"r.r.r.y.r.=.v r e t t t p t d d d d t t d t e @ r z %.9.e.r.e.r.",
"r.0.r.r.r.r.=.v r @ @ t t t t p t t t e e e . # z %.>.,.r.r.r.r.",
"r.r.r.r.r.9.r.+.h e + #     e e t @ @   + + e h X.>.,.9.r.r.r.r.",
"r.r.r.r.r.r.r.#.S A V $ o o + + O + o X $ z Z S <.9.9.r.r.0.r.r.",
"r.r.r.r.r.r.r.2.S A Y ( ; & $ $ $ $ & ; - E Z S 1.w.y.r.r.r.r.r.",
"r.r.e.r.r.r.r.e.<.A C R Y * - > > - * Y E V A @.w.e.e.r.r.r.r.r.",
"r.r.y.p.y.y.e.e.4.Q S A C j T ( ( T j Z Z S @. .e.e.t.r.r.r.r.r.",
"r.y.p.f.d.y.r.r.r.4.^ ..S A x R R j A S ..1.7.r.r.r.r.r.r.r.r.r.",
"r.t.s.d.p.i.r.e.w.r.y.8.2.G S A A A ../ ;.e.y.y.r.r.r.r.r.r.r.r.",
"r.r.y.i.y.r.r.r.r.r.r.w.u.3.<.@.^ <.3.u.9.r.r.r.r.r.r.r.r.r.r.r.",
"r.r.r.r.r.r.r.y.r.r.r.r.r.w.w.t.t.w.e.u.r.r.r.e.r.r.r.r.r.r.r.r."
};
