/* XPM */
static char *result[] = {
/* columns rows colors chars-per-pixel */
"32 32 29 1 ",
"  c #755338",
". c #765338",
"X c #765438",
"o c #6C4C33",
"O c #583C29",
"+ c #765439",
"@ c #775439",
"# c #6B4B33",
"$ c #6E4D34",
"% c #735137",
"& c #735237",
"* c #6E4E35",
"= c #64462F",
"- c #553A28",
"; c #563A28",
": c #573C29",
"> c #5F422D",
", c #6F4E35",
"< c #573B29",
"1 c #6E4E34",
"2 c #513725",
"3 c #513726",
"4 c #563B28",
"5 c #583D29",
"6 c #593D29",
"7 c #6B4C33",
"8 c #6C4C34",
"9 c #60422D",
"0 c white",
/* pixels */
"                     .XoOOoX.   ",
".......    ..        X+oOOo++...",
"XXXXXXX.  .XXX       X@oOOo@+XXX",
"ooooo##$%%$##$%      &*=-;=ooooo",
"OOOOOO:>,,><<>1X    X1>-234OOOOO",
"OOOOOO:>,,><<>1X    X1>O56OOOOOO",
"ooooo##$%%$##$%      %$7oooooooo",
"XXXXXXXX  XXXX        XXXXXXXXXX",
".......    ..          .........",
"                                ",
"          XX                    ",
".......XX&11&XX    ..          .",
"XXXXXXX+@*>>*@+X  XXXX        XX",
"ooooooooo=--=oo$%%$##$%      %$#",
"OO66OOOOO;22;OO>,,><<>1X    X$>:",
"5;22;OOOOO66OO:>,,><<>1X    X$>:",
"8=--=oooooooo##$%%$##$%      %$#",
"@,9>*@+XXXXXXXXX  XXXX        XX",
"X&*1&XX........    ..          .",
"  XX                            ",
"                                ",
".....        ...................",
"XXXXXX      XXXXXXXXXXXXXXXXXXXX",
"ooo##$%    %$##ooooooooooooooooo",
"OOOO:>1X  X1>:OOOOOOOOOO66OOOOOO",
"OOOO:>1X  X1>:OOOOOOOOO;22;OOOOO",
"ooo##$%    %$##oooooooo=--=ooooo",
"XXXXXX      XXXXXXXXX+@*>>*@+XXX",
".....        ........XX&11&XX...",
"                        XX      ",
"                                ",
"                                "
};
